<svg xmlns="http://www.w3.org/2000/svg" xmlns:xlink="http://www.w3.org/1999/xlink" version="1.1" x="0px" y="0px" viewBox="0 0 100 100" enable-background="new 0 0 100 100" xml:space="preserve"><g><path fill="none" d="M54.2,27.1c-0.1,0.4-0.2,0.8-0.4,1.3c0.3,0.1,0.7,0.3,1,0.4c0.2-0.5,0.4-1,0.5-1.5   C54.9,27.2,54.5,27.1,54.2,27.1z"></path><path fill="none" d="M53.6,24c0.2,0.3,0.3,0.7,0.5,1.2c0.3-0.1,0.6-0.2,0.9-0.2c-0.2-0.5-0.4-0.9-0.6-1.3   C54.1,23.7,53.9,23.8,53.6,24z"></path><path fill="none" d="M51.7,28.7c0.2-0.3,0.3-0.5,0.4-0.8c-0.4-0.2-0.7-0.3-1-0.5c0,0.2-0.1,0.4-0.2,0.7   C51.2,28.3,51.4,28.5,51.7,28.7z"></path><path fill="none" d="M51.9,24c0.1,0.1,0.2,0.3,0.3,0.5c0.2-0.1,0.5-0.3,0.7-0.4c-0.1-0.2-0.3-0.4-0.4-0.5   C52.3,23.7,52.1,23.9,51.9,24z"></path><path fill="none" d="M51.8,24.8c-0.1-0.2-0.2-0.3-0.3-0.4c0,0-0.1,0.1-0.1,0.1l-0.7,0.7c0,0.1,0.1,0.1,0.1,0.2   C51,25.2,51.4,25,51.8,24.8z"></path><path fill="none" d="M52.7,26.6c0.3,0,0.7,0.1,1,0.1c0-0.4,0-0.8-0.1-1.1c-0.3,0.1-0.6,0.1-0.9,0.2C52.7,26.1,52.7,26.4,52.7,26.6z   "></path><path fill="none" d="M52.8,29.5c0.2-0.3,0.4-0.6,0.6-1c-0.3-0.2-0.6-0.3-0.9-0.5c-0.1,0.3-0.2,0.5-0.4,0.8   C52.2,29.1,52.5,29.3,52.8,29.5z"></path><path fill="none" d="M53.5,28.2c0.2-0.4,0.3-0.8,0.3-1.2c-0.4-0.1-0.7-0.1-1-0.2c0,0.3-0.1,0.6-0.2,1   C52.8,27.9,53.1,28.1,53.5,28.2z"></path><path fill="none" d="M52.4,26.6c0-0.2,0-0.4-0.1-0.6c-0.4,0.1-0.8,0.2-1.1,0.2c0,0.1,0,0.2,0.1,0.3C51.5,26.5,51.9,26.5,52.4,26.6z   "></path><path fill="none" d="M57.6,21.2c0-0.2-0.1-0.3-0.2-0.5L57,21.1l-0.3-0.4l0.3-0.3c0,0-0.1,0-0.1,0c0,0-0.2,0.2-0.5,0.4   c0.2,0.2,0.4,0.5,0.6,0.9C57.4,21.5,57.6,21.3,57.6,21.2z"></path><path fill="none" d="M55.7,24.7c0.5-0.1,1-0.2,1.5-0.3c-0.2-0.7-0.5-1.4-0.9-1.9c-0.4,0.2-0.8,0.5-1.3,0.7   C55.3,23.6,55.5,24.1,55.7,24.7z"></path><path fill="none" d="M58,27.4c0.3,0,0.5,0.1,0.5,0c0.2,0,0.3-0.7,0.3-1.3l-0.5,0.1l-0.1-0.4l0.6-0.2c-0.1-0.4-0.2-0.6-0.4-0.7   c-0.1,0-0.2,0-0.3,0C58.2,25.6,58.2,26.5,58,27.4z"></path><path fill="none" d="M54.2,22.1c0.4-0.3,0.8-0.6,1.2-0.9c-0.1-0.2-0.3-0.3-0.4-0.4l-1.1,1.1C54,21.9,54.1,22,54.2,22.1z"></path><path fill="none" d="M55.2,29c0.5,0.2,1,0.5,1.4,0.7c0.4-0.7,0.6-1.3,0.7-2c-0.5-0.1-1-0.2-1.6-0.3C55.6,27.9,55.4,28.4,55.2,29z"></path><path fill="none" d="M52.6,29.7c-0.3-0.2-0.5-0.4-0.7-0.6c-0.1,0.2-0.2,0.4-0.4,0.5l0.6,0.6C52.3,30.1,52.4,29.9,52.6,29.7z"></path><path fill="none" d="M53.6,30.6c-0.2-0.2-0.5-0.4-0.7-0.6c-0.1,0.2-0.3,0.4-0.5,0.6l0.6,0.6C53.2,31,53.4,30.8,53.6,30.6z"></path><path fill="none" d="M56.3,31.8c0.5-0.2,1.1-0.8,0.8-1.3c0,0-0.1-0.1-0.3-0.2c-0.3,0.4-0.5,0.9-0.9,1.4   C56.1,31.8,56.2,31.8,56.3,31.8z"></path><path fill="none" d="M55.8,27.1c0.6,0.1,1.1,0.2,1.6,0.2c0.1-0.8,0.1-1.6-0.1-2.3c-0.4,0.1-1,0.2-1.5,0.3   C55.9,25.8,55.9,26.4,55.8,27.1z"></path><path fill="none" d="M52.2,27.7c0.1-0.3,0.1-0.6,0.1-0.9c-0.4-0.1-0.8-0.1-1.2-0.1c0,0.2,0,0.4,0,0.6   C51.5,27.3,51.8,27.5,52.2,27.7z"></path><path fill="none" d="M50.4,26.7c0,0.1,0.2,0.2,0.5,0.4c0-0.2,0-0.3,0-0.5C50.6,26.6,50.4,26.6,50.4,26.7z"></path><path fill="none" d="M51.9,25c-0.4,0.2-0.7,0.4-1,0.6c0.1,0.1,0.1,0.3,0.2,0.4c0.3-0.1,0.7-0.2,1.1-0.3C52.1,25.4,52,25.2,51.9,25z   "></path><path fill="none" d="M51.6,28.9c-0.3-0.2-0.6-0.4-0.8-0.6c-0.1,0.1-0.2,0.3-0.3,0.4l0.6,0.6C51.3,29.2,51.5,29.1,51.6,28.9z"></path><path fill="none" d="M50.2,26.1c0,0.1,0.2,0,0.5,0c0-0.1-0.1-0.2-0.1-0.3C50.3,25.9,50.2,26,50.2,26.1z"></path><path fill="none" d="M50.6,28.2c-0.3-0.2-0.5-0.3-0.6-0.3c-0.1,0-0.1,0.1-0.2,0.1l0.5,0.5C50.5,28.5,50.6,28.3,50.6,28.2z"></path><path fill="none" d="M53.4,31.6l0.8,0.8c0.3-0.3,0.5-0.5,0.8-0.8c-0.3-0.2-0.7-0.5-1-0.8C53.8,31.1,53.6,31.4,53.4,31.6z"></path><path fill="none" d="M53.5,25.3c-0.1-0.4-0.3-0.7-0.5-1c-0.3,0.1-0.5,0.3-0.8,0.4c0.1,0.2,0.2,0.5,0.3,0.8   C52.9,25.5,53.2,25.4,53.5,25.3z"></path><path fill="none" d="M43.1,25.7c0.4,0.1,0.8,0.3,1.1,0.4c0.1-0.1,0.1-0.3,0.2-0.4c-0.3-0.2-0.6-0.4-1-0.6   C43.3,25.2,43.2,25.5,43.1,25.7z"></path><path fill="none" d="M52.5,23.4C52.4,23.4,52.4,23.4,52.5,23.4l-0.6,0.4C52.1,23.7,52.3,23.6,52.5,23.4z"></path><path fill="none" d="M54.2,26.8c0.4,0.1,0.7,0.1,1.1,0.2c0-0.6,0-1.1-0.1-1.6c-0.3,0.1-0.6,0.1-1,0.2   C54.2,25.9,54.3,26.4,54.2,26.8z"></path><path fill="none" d="M56.4,30c-0.4-0.2-0.8-0.4-1.3-0.7c-0.2,0.4-0.5,0.8-0.7,1.2c0.4,0.3,0.8,0.6,1.1,0.8   C55.8,30.9,56.1,30.4,56.4,30z"></path><path fill="none" d="M53.1,29.7c0.3,0.2,0.5,0.4,0.8,0.6c0.3-0.4,0.6-0.8,0.8-1.1c-0.3-0.2-0.6-0.3-1-0.5   C53.5,29,53.3,29.3,53.1,29.7z"></path><path fill="none" d="M55.6,21.4c-0.4,0.3-0.8,0.5-1.2,0.8c0.2,0.2,0.4,0.4,0.5,0.7c0.4-0.3,0.9-0.5,1.2-0.7   C56,21.9,55.8,21.7,55.6,21.4z"></path><path fill="none" d="M53,23c0.2-0.2,0.4-0.3,0.6-0.5c-0.1-0.1-0.1-0.2-0.2-0.2l-0.6,0.6C52.9,22.9,52.9,23,53,23z"></path><path fill="none" d="M53.5,23.8c0.2-0.1,0.5-0.3,0.7-0.4c-0.2-0.2-0.3-0.5-0.5-0.7c-0.2,0.2-0.4,0.3-0.7,0.5   C53.2,23.3,53.4,23.5,53.5,23.8z"></path><path fill="none" d="M46,26.7l-1.1-1.1c0,0,0,0.1-0.1,0.1c0,0,0.1,0,0.1,0.1c0.1,0.1,0.6,0.9,0.3,0.8c-0.1,0-0.3-0.1-0.8-0.2   c0,0,0,0.1-0.1,0.1c0.1,0,0.1,0,0.2,0c0.3,0.1,0.6,0.2,0.6,0.5c0,0.1-0.4,0.2-0.9,0.5c0,0.2,0.1,0.4,0.1,0.7   c0.4-0.3,0.8-0.5,0.9-0.5c0.1,0,0.2,0,0.2,0.1l0.5-0.5c0.1-0.1,0.2-0.2,0.3-0.2C46.2,26.9,46.1,26.8,46,26.7z"></path><path fill="none" d="M43.8,24.5c-0.1,0.1-0.2,0.2-0.3,0.3c0.4,0.3,0.7,0.5,1,0.6c0,0,0.1-0.1,0.1-0.1L43.8,24.5z"></path><path fill="none" d="M43.2,29.2c-0.2,0.2-0.5,0.4-0.8,0.6c0.1,0.2,0.3,0.4,0.5,0.6l0.6-0.6C43.4,29.5,43.3,29.3,43.2,29.2z"></path><path fill="none" d="M39.1,20.6L39,20.7l-0.5-0.5c-0.2,0.1-0.5,0.5-0.5,0.7c0,0.1,0.2,0.2,0.6,0.5C38.8,21.1,39,20.9,39.1,20.6   C39.2,20.6,39.2,20.6,39.1,20.6z"></path><path fill="none" d="M43,26c-0.1,0.2-0.1,0.4-0.1,0.6c0.5,0,0.9-0.1,1.2-0.1c0-0.1,0-0.2,0.1-0.2C43.8,26.2,43.4,26.1,43,26z"></path><path fill="none" d="M41.3,22l-1-1c0,0,0,0-0.1,0.1C40.5,21.3,40.9,21.7,41.3,22C41.3,22,41.3,22,41.3,22z"></path><path fill="none" d="M43,28c0.1,0.3,0.2,0.5,0.4,0.8c0.3-0.2,0.6-0.4,0.9-0.5c-0.1-0.2-0.1-0.5-0.2-0.7C43.7,27.7,43.4,27.8,43,28z   "></path><path fill="none" d="M44.8,26.8c0-0.1-0.2-0.1-0.5-0.1c0,0.1-0.1,0.3-0.1,0.5C44.6,27,44.9,26.9,44.8,26.8z"></path><path fill="none" d="M44,26.7c-0.3,0-0.7,0-1.2,0.1c0,0.3,0,0.6,0.1,0.9c0.4-0.2,0.8-0.3,1.1-0.4C44,27.1,44,26.9,44,26.7z"></path><path fill="none" d="M40.4,23.1c-0.4-0.3-0.8-0.6-1.2-0.8c-0.4,0.5-0.7,1.2-1,1.9c0.4,0.1,0.9,0.2,1.5,0.4   C39.9,24,40.1,23.5,40.4,23.1z"></path><path fill="none" d="M45.1,26.2c0,0-0.1-0.2-0.4-0.4c-0.1,0.1-0.1,0.2-0.2,0.3C44.8,26.3,45.1,26.3,45.1,26.2z"></path><path fill="none" d="M40.9,30.8c-0.4,0.3-0.7,0.5-1.1,0.7c0.3,0.3,0.6,0.6,0.9,1l0.8-0.8C41.3,31.4,41.1,31.1,40.9,30.8z"></path><path fill="none" d="M49.9,27.4c0.1,0,0.4,0.2,0.9,0.5c0.1-0.2,0.2-0.4,0.2-0.7C50.4,27,50,26.8,50,26.8c0-0.2,0.4-0.4,0.7-0.4   c0,0,0.1,0,0.2,0c0,0,0-0.1,0-0.1c-0.4,0.1-0.7,0.1-0.8,0.1c-0.4,0,0.2-0.7,0.3-0.8c0,0,0,0,0.1,0c0,0-0.1-0.1-0.1-0.1L49,26.7   c-0.1,0.1-0.2,0.2-0.3,0.2c0.1,0.1,0.2,0.1,0.3,0.2l0.5,0.5C49.6,27.5,49.7,27.4,49.9,27.4z"></path><path fill="none" d="M38.2,30C38.1,30.1,38.1,30.1,38.2,30L38.2,30C38.2,30.1,38.2,30.1,38.2,30z"></path><path fill="none" d="M37.8,30.4c-0.1,0.4,0.4,0.9,0.8,1.1c0.1,0,0.2,0,0.3-0.1c-0.2-0.3-0.3-0.5-0.5-0.8L37.8,30.4z"></path><path fill="none" d="M39.4,27.2c-0.6,0.1-1.1,0.1-1.6,0.2c0.1,0.6,0.3,1.3,0.6,2c0.4-0.2,0.9-0.4,1.4-0.6   C39.7,28.2,39.5,27.7,39.4,27.2z"></path><path fill="none" d="M37.2,24.6c-0.1,0-0.2,0-0.3,0c-0.2,0-0.3,0.2-0.4,0.5l0.4,0.1l-0.1,0.4l-0.4-0.1c-0.1,0.7,0,1.6,0.2,1.6   c0.1,0,0.3,0,0.5,0C37,26.1,37.1,25.3,37.2,24.6z"></path><path fill="none" d="M41.4,30.5c0.2,0.2,0.4,0.5,0.6,0.7l0.6-0.6c-0.2-0.2-0.3-0.5-0.5-0.7C41.9,30.1,41.6,30.3,41.4,30.5z"></path><path fill="none" d="M41.4,28.6c-0.3,0.1-0.7,0.3-1,0.4c0.2,0.4,0.4,0.8,0.7,1.2c0.3-0.2,0.5-0.3,0.8-0.5   C41.7,29.3,41.6,28.9,41.4,28.6z"></path><path fill="none" d="M42.3,23.2c-0.2-0.2-0.4-0.3-0.6-0.5c-0.2,0.2-0.3,0.4-0.5,0.6c0.2,0.2,0.5,0.3,0.7,0.4   C42,23.5,42.2,23.3,42.3,23.2z"></path><path fill="none" d="M41.1,25.5c-0.3-0.1-0.6-0.2-0.9-0.2c-0.2,0.5-0.3,1-0.2,1.6c0.4,0,0.7-0.1,1.1-0.1C41,26.3,41,25.9,41.1,25.5   z"></path><path fill="none" d="M39.5,31.2c0.3-0.2,0.7-0.4,1.2-0.7c-0.3-0.4-0.5-0.9-0.7-1.3c-0.5,0.2-1,0.4-1.4,0.6c0.1,0.2,0.2,0.4,0.3,0.6   l0.1,0l0,0.1C39.2,30.7,39.4,30.9,39.5,31.2z"></path><path fill="none" d="M39.5,25.1c-0.6-0.1-1.1-0.3-1.5-0.4c-0.2,0.7-0.3,1.5-0.2,2.3c0.5,0,1-0.1,1.6-0.1   C39.4,26.2,39.4,25.6,39.5,25.1z"></path><path fill="none" d="M44.5,28.3c0,0.1,0.1,0.2,0.2,0.3l0.5-0.5c0,0,0,0,0,0C45,28.1,44.8,28.2,44.5,28.3z"></path><path fill="none" d="M43.8,29.4l0.7-0.7c-0.1-0.1-0.1-0.2-0.2-0.3c-0.2,0.1-0.5,0.3-0.8,0.6C43.6,29.1,43.7,29.3,43.8,29.4z"></path><path fill="none" d="M41.3,28.3c-0.2-0.5-0.3-0.9-0.3-1.3c-0.4,0-0.7,0.1-1.1,0.1c0,0.5,0.1,1,0.4,1.6C40.6,28.5,41,28.4,41.3,28.3   z"></path><path fill="none" d="M41.7,25.6c-0.1,0.3-0.2,0.7-0.2,1.1c0.4,0,0.7-0.1,1-0.1c0-0.3,0-0.5,0.1-0.8C42.3,25.8,42,25.7,41.7,25.6z"></path><path fill="none" d="M43.1,23.8c-0.1-0.1-0.2-0.1-0.2-0.2c-0.1,0.2-0.3,0.3-0.4,0.5c0.2,0.2,0.5,0.3,0.7,0.5   c0.1-0.2,0.2-0.3,0.3-0.4L43.1,23.8z"></path><path fill="none" d="M39.4,22c0.4,0.3,0.8,0.5,1.2,0.8c0.2-0.3,0.4-0.5,0.6-0.7c-0.4-0.3-0.8-0.6-1.1-0.9   C39.8,21.5,39.6,21.8,39.4,22z"></path><path fill="none" d="M41.2,25.1c0.1-0.4,0.3-0.8,0.5-1.1c-0.2-0.2-0.5-0.3-0.7-0.5c-0.3,0.4-0.5,0.8-0.7,1.3   C40.6,24.9,40.9,25,41.2,25.1z"></path><path fill="none" d="M42.3,24.3c-0.2,0.3-0.4,0.6-0.5,1c0.3,0.1,0.6,0.2,0.9,0.3c0.1-0.3,0.2-0.6,0.4-0.8   C42.8,24.6,42.5,24.4,42.3,24.3z"></path><path fill="none" d="M42.5,26.8c-0.3,0-0.7,0.1-1,0.1c0,0.4,0.1,0.8,0.2,1.2c0.3-0.1,0.7-0.2,1-0.4C42.6,27.5,42.5,27.1,42.5,26.8z   "></path><path fill="none" d="M43.1,28.9c-0.2-0.3-0.3-0.6-0.4-0.9c-0.3,0.1-0.6,0.3-1,0.4c0.1,0.3,0.3,0.7,0.5,1   C42.5,29.3,42.8,29.1,43.1,28.9z"></path><path fill="#000000" d="M87.5,69.3c-1.7-3.2-3.7-5.9-5.3-7.4c0.7-0.7,1-1.3,0.8-1.8c-0.3-0.5-1.3-0.5-2.4-0.2l-4.3-7.9   c1-0.8,1.5-1.6,1.2-2.1c-0.3-0.6-1.6-0.5-3,0.1c-2.5-2.3-14.9-11.7-18.2-13.3c0.5-0.8,0.4-1.9-0.3-2.6l-1-1c0.3-0.3,0.5-0.6,0.8-1   c0.2,0.1,0.3,0.2,0.4,0.2c0.6,0.1,1-0.4,1.3-0.9l0,0.1l6-1.9c0.2,0.4,0.4,0.7,0.6,0.6c0.2-0.1,0.2-0.5,0-1   c-0.2-0.5-0.4-0.9-0.6-0.8c-0.2,0.1-0.2,0.4-0.1,0.8l-5.7,1.8c0.1-0.2,0.1-0.3,0.1-0.4c0-0.1-0.2-0.3-0.6-0.6   c0.4-0.7,0.7-1.5,0.8-2.1c0.3,0.1,0.5,0.1,0.7,0.1c0.7,0.1,0.8-0.9,0.6-1.9l5.2-1.7c0.2,0.4,0.4,0.7,0.6,0.6c0.2-0.1,0.2-0.5,0-1   c-0.2-0.5-0.4-0.9-0.6-0.8c-0.2,0.1-0.2,0.4-0.1,0.8l-5.2,1.6c-0.1-0.5-0.3-0.9-0.5-1.1c-0.1-0.1-0.3-0.1-0.5-0.1   c-0.2-0.9-0.5-1.7-0.9-2.4c0.5-0.3,0.8-0.6,0.9-0.7c0-0.2-0.1-0.5-0.3-0.7l4.2-3.4c0.3,0.3,0.6,0.5,0.7,0.4c0.2-0.1,0-0.6-0.3-1   c-0.3-0.4-0.7-0.7-0.9-0.5c-0.1,0.1,0,0.4,0.2,0.8l-4.3,3.5c-0.2-0.1-0.5-0.1-0.7,0c-0.1,0-0.2,0.2-0.4,0.3   c-0.2-0.2-0.3-0.4-0.5-0.5l0.2-0.2c0.6-0.6,0.8-1.5,0.5-2.2l4.5-3.6c0.3,0.3,0.6,0.5,0.7,0.4c0.2-0.1,0-0.6-0.3-1   c-0.3-0.4-0.7-0.7-0.9-0.5c-0.1,0.1,0,0.4,0.2,0.8l-4.4,3.6c-0.1-0.1-0.1-0.2-0.2-0.3L55,16l1.3-5.2c0.4,0.1,0.8,0,0.8-0.2   c0-0.2-0.3-0.5-0.9-0.6c-0.5-0.1-1-0.1-1,0.1c0,0.2,0.2,0.4,0.6,0.5l-1.2,4.9l-1.2-1.2l1.3-5.2c0.4,0.1,0.8,0,0.8-0.2   c0-0.2-0.3-0.5-0.9-0.6c-0.5-0.1-1-0.1-1,0.1c0,0.2,0.2,0.4,0.6,0.5L53,14l-1.2-1.2l1.3-5.2c0.4,0.1,0.8,0,0.8-0.2   c0-0.2-0.3-0.5-0.9-0.6c-0.5-0.1-1-0.1-1,0.1c0,0.2,0.2,0.4,0.6,0.5l-1.2,4.9l-1.2-1.2l1.3-5.2c0.4,0.1,0.8,0,0.8-0.2   c0-0.2-0.3-0.5-0.9-0.6c-0.5-0.1-1-0.1-1,0.1c0,0.2,0.2,0.4,0.6,0.5l-1.2,4.9L49.3,10c-0.3-0.3-1.2-0.6-1.2-0.6v-5c0,0,0,0,0,0   c0,0,0.7-0.1,0.7-0.3c0-0.2-0.6-0.4-1.1-0.4c-0.5,0-1.2,0.2-1.2,0.4c0,0.2,0.8,0.3,0.8,0.3l0,5c0,0.1-1,0.3-1.4,0.7l-0.2,0.2   l-1.6-4.1c0.4-0.2,0.6-0.4,0.6-0.6c-0.1-0.2-0.5-0.2-1,0c-0.5,0.2-0.9,0.5-0.8,0.7c0.1,0.2,0.4,0.2,0.8,0l1.7,4.3l-1.2,1.2   l-1.6-4.1c0.4-0.2,0.6-0.4,0.6-0.6c-0.1-0.2-0.5-0.2-1,0c-0.5,0.2-0.9,0.5-0.8,0.7c0.1,0.2,0.4,0.2,0.8,0l1.7,4.3l-1.2,1.2   l-1.6-4.1c0.4-0.2,0.6-0.4,0.6-0.6c-0.1-0.2-0.5-0.2-1,0c-0.5,0.2-0.9,0.5-0.8,0.7c0.1,0.2,0.4,0.2,0.8,0l1.7,4.3l-1.7,1.7L39,11.4   c0.4-0.2,0.6-0.4,0.6-0.6c-0.1-0.2-0.5-0.2-1,0c-0.5,0.2-0.9,0.5-0.8,0.7c0.1,0.2,0.4,0.2,0.8,0l1.7,4.3l-1.1,1.1   c-0.2,0.2-0.4,0.5-0.5,0.8l-3.8-3.8c0.3-0.3,0.4-0.6,0.3-0.8c-0.1-0.1-0.6,0.1-1,0.4c-0.4,0.4-0.6,0.8-0.4,0.9   c0.1,0.1,0.5,0,0.8-0.3l4,4.1c0,0.6,0.2,1.2,0.6,1.6l0.4,0.4c0,0-0.1,0.1-0.1,0.1c-0.2-0.2-0.3-0.3-0.4-0.3   C39,20,38.9,20,38.8,19.9l-4-4c0.3-0.3,0.4-0.6,0.3-0.8c-0.1-0.1-0.6,0.1-1,0.4c-0.4,0.4-0.6,0.8-0.4,0.9c0.1,0.1,0.5,0,0.8-0.3   l3.7,3.7c-0.4,0.2-0.7,0.6-0.7,0.9c0,0.1,0.3,0.4,0.8,0.7c-0.4,0.6-0.8,1.4-1.1,2.3c-0.3,0-0.4,0-0.5,0.1c-0.2,0.2-0.4,0.5-0.5,0.9   L31,23.2c0.1-0.4,0.1-0.8-0.1-0.8c-0.2-0.1-0.5,0.3-0.7,0.8s-0.2,1,0,1c0.2,0.1,0.4-0.2,0.6-0.6l5.3,1.8c-0.3,1-0.3,2.3,0.4,2.2   c0.1,0,0.4,0,0.7-0.1c0.1,0.7,0.4,1.4,0.7,2.2c-0.2,0.1-0.3,0.2-0.4,0.2l-4.5-1.5c0.1-0.4,0.1-0.8-0.1-0.8   c-0.2-0.1-0.5,0.3-0.7,0.8c-0.2,0.5-0.2,1,0,1c0.2,0.1,0.4-0.2,0.6-0.6l4.4,1.5c0.2,0.7,0.6,1.8,1.4,1.8c0.1,0,0.3-0.1,0.4-0.2   c0.3,0.4,0.6,0.8,0.9,1.2l-1,1c-0.5,0.5-0.7,1.3-0.6,1.9c-2.4,1.9-8,6.9-16.1,14.4c-1.4-0.5-2.6-0.4-2.9,0.2   c-0.3,0.6,0.4,1.5,1.7,2.3l-3.8,8.1c-1.4-0.4-2.6-0.4-2.8,0.2c-0.2,0.5,0.3,1.3,1.3,2.1c-1.5,1.7-3.2,4.4-4.8,7.6   c-2.8,5.8-3.8,11.1-2.3,11.8c1.5,0.7,4.9-3.4,7.7-9.3c1.6-3.3,2.6-6.4,2.9-8.6c0.9,0.2,1.7,0,1.9-0.4c0.2-0.5-0.3-1.3-1.3-2.1   l3.9-8.2c1.2,0.3,2.2,0.2,2.4-0.3c0.3-0.7-0.9-2-2.7-2.9c-0.1,0-0.2-0.1-0.2-0.1c2.6-2.4,12.1-11.1,15.3-14.4   c0.1,0.2,0.2,0.5,0.4,0.6l0.2,0.2c-2.2,2.8-10.7,15.6-11.8,18c-1.5-0.4-2.7-0.2-2.9,0.4c-0.2,0.6,0.6,1.5,1.8,2.2l-3.2,8.3   c-1.4-0.3-2.6-0.2-2.8,0.4c-0.2,0.5,0.4,1.3,1.5,2c-1.4,1.8-2.9,4.6-4.2,7.9c-2.3,6-2.9,11.4-1.4,11.9c1.5,0.6,4.6-3.8,6.9-9.8   c1.3-3.4,2.1-6.6,2.2-8.8c0.9,0.1,1.7-0.1,1.8-0.6c0.2-0.5-0.4-1.3-1.5-2l3.2-8.5c1.2,0.2,2.2,0.1,2.4-0.5c0.3-0.8-1-2-2.9-2.7   c-0.1,0-0.2-0.1-0.3-0.1c1.5-2.4,9.5-14.9,11.2-18l2.7,2.7c-2,3.7-6.6,15.6-8,19.2c-0.2-0.1-0.4-0.1-0.6-0.2   c-2-0.5-3.7-0.2-3.9,0.6c-0.1,0.6,0.8,1.4,2.1,1.9l-2,8.7c-1.5-0.1-2.6,0.1-2.7,0.8c-0.1,0.6,0.6,1.2,1.7,1.8   c-1.1,1.9-2.2,4.9-3,8.4c-1.5,6.3-1.4,11.7,0.2,12c1.6,0.4,4.1-4.4,5.5-10.7c0.8-3.5,1.2-6.8,1-9c0.9-0.1,1.6-0.3,1.7-0.8   c0.1-0.6-0.6-1.2-1.7-1.7l2.1-8.8c1.2,0,2.2-0.2,2.3-0.8c0.1-0.6-0.8-1.4-2.2-1.9c1.5-3.3,6.6-14.6,8-18.9l1.8,1.8   c-1.4,4.2-4.6,17.9-5.2,20.7c-0.1,0-0.2,0-0.3,0c-2-0.2-3.7,0.2-3.8,1c-0.1,0.6,0.9,1.3,2.3,1.6l-1,8.9c-1.5,0-2.6,0.4-2.6,1.1   c-0.1,0.6,0.7,1.2,1.9,1.5c-0.9,2.1-1.6,5.2-2.1,8.7c-0.7,6.4,0,11.7,1.6,11.9c1.6,0.2,3.5-4.9,4.3-11.2c0.4-3.6,0.4-6.9-0.1-9.1   c0.9-0.2,1.6-0.5,1.6-1c0.1-0.6-0.7-1.2-1.9-1.5l1-9c1.2-0.1,2.1-0.5,2.2-1.1c0.1-0.6-1-1.3-2.4-1.7c0.8-2.3,4.2-15.4,5-20.3l1,1   c0.1,0.1,0.1,0.1,0.2,0.2c-0.2,4.4,0.5,16,0.7,18.8c-1.8,0.1-3.3,0.7-3.3,1.4c0,0.6,1.3,1.2,2.4,1.4v8.9c-1,0.2-2.4,0.7-2.4,1.4   c0,0.6,0.9,1.1,2.1,1.3c-0.6,2.1-1,5.3-1,8.9c0,6.4,1.3,11.7,3,11.7c1.6,0,3-5.2,3-11.7c0-3.6-0.4-6.9-1.1-9   c0.9-0.3,1.6-0.7,1.6-1.2c0-0.6-1-1.1-2-1.3v-9.1c1-0.2,2-0.7,2-1.3c0-0.8-1.6-1.4-3.6-1.5c0-2.8-0.2-13.9-0.6-18.5   c0.7,0.2,1.5,0,2.1-0.5l0.1-0.1c0.7,4.2,4,16.4,5,19.4c-1.4,0.3-2.4,0.9-2.4,1.6c0.1,0.6,1.1,1.1,2.6,1.2l0.8,8.9   c-1.4,0.3-2.4,0.9-2.4,1.6c0.1,0.6,0.9,1,2.2,1.1c-0.5,2.2-0.6,5.4-0.3,9c0.6,6.4,2.3,11.5,4,11.4c1.6-0.1,2.5-5.5,1.9-11.9   c-0.3-3.6-1-6.8-1.9-8.9c0.9-0.3,1.4-0.8,1.4-1.3c0-0.6-0.9-1-2.2-1.1l-0.8-9c1.2-0.3,2-0.9,2-1.5c-0.1-0.8-1.8-1.3-3.8-1.1   c-0.1,0-0.1,0-0.2,0c-1-4-4.2-16.1-5.5-19.6l1.5-1.5c2,4.1,10.2,16.4,11.4,18.3c-0.1,0-0.1,0-0.2,0c-2,0.4-3.5,1.5-3.3,2.2   c0.1,0.6,1.3,0.9,2.7,0.8l2,8.7c-1.4,0.5-2.3,1.3-2.1,1.9c0.1,0.6,1.1,0.9,2.3,0.8c-0.2,2.2,0.2,5.4,0.9,8.9   c1.4,6.3,3.9,11.1,5.5,10.7c1.6-0.4,1.7-5.7,0.3-12c-0.8-3.6-1.9-6.6-3.1-8.6c0.8-0.5,1.3-1,1.2-1.5c-0.1-0.6-1.1-0.9-2.3-0.8   l-2-8.8c1.1-0.5,1.9-1.2,1.7-1.7c-0.2-0.7-1.5-1-3.1-0.8c-1.4-2.3-9-15.3-11.6-18.7L53,40c2.4,3.1,11.3,12.4,14.1,15.2   c-1.3,0.7-2.1,1.6-1.9,2.3c0.2,0.6,1.4,0.7,2.8,0.3l3.3,8.3c-1.3,0.7-2,1.6-1.8,2.2c0.2,0.5,1.2,0.7,2.4,0.4c0.2,2.2,1,5.3,2.3,8.6   c2.4,6,5.6,10.3,7.1,9.7c1.5-0.6,0.8-5.9-1.6-11.9c-1.4-3.4-3-6.2-4.4-8c0.7-0.6,1.1-1.2,1-1.6c-0.2-0.5-1.2-0.7-2.4-0.4l-3.4-8.4   c1-0.7,1.7-1.4,1.4-2c-0.3-0.7-2.1-0.7-4,0c-0.1,0.1-0.3,0.1-0.4,0.2C66,52.2,56.5,42.2,53.3,39.6l2.5-2.5   c2.5,2.5,14.6,11.2,17.6,13.4c-1.8,1-2.9,2.3-2.5,3c0.3,0.6,1.5,0.5,2.8,0l4.3,7.8c-1.2,0.9-1.8,1.8-1.5,2.4   c0.3,0.5,1.3,0.5,2.5,0.1c0.5,2.2,1.6,5.2,3.3,8.3c3.1,5.7,6.7,9.6,8.2,8.8C92,80.2,90.6,75,87.5,69.3z M54.3,32.5l-0.8-0.8   c0.2-0.2,0.4-0.5,0.6-0.7c0.4,0.3,0.7,0.6,1,0.8C54.8,31.9,54.5,32.2,54.3,32.5z M49.9,28.1c0-0.1,0.1-0.1,0.2-0.1   c0.1,0,0.3,0.1,0.6,0.3c-0.1,0.1-0.1,0.3-0.2,0.4L49.9,28.1z M50.8,28.3c0.2,0.2,0.5,0.4,0.8,0.6c-0.1,0.2-0.3,0.3-0.4,0.5   l-0.6-0.6C50.6,28.6,50.7,28.4,50.8,28.3z M50.9,27.1c-0.4-0.2-0.6-0.3-0.5-0.4c0-0.1,0.2-0.1,0.5-0.1   C50.9,26.7,50.9,26.9,50.9,27.1z M51.2,26.6c0.3,0,0.7,0.1,1.2,0.1c0,0.3,0,0.6-0.1,0.9c-0.4-0.2-0.8-0.3-1-0.5   C51.2,27,51.2,26.8,51.2,26.6z M50.9,25.6c0.3-0.2,0.6-0.4,1-0.6c0.1,0.2,0.2,0.4,0.3,0.7c-0.4,0.1-0.8,0.2-1.1,0.3   C51,25.8,51,25.7,50.9,25.6z M50.7,26c-0.3,0.1-0.5,0.1-0.5,0c0,0,0.1-0.2,0.4-0.3C50.6,25.8,50.7,25.9,50.7,26z M52.4,23.3   C52.4,23.4,52.4,23.4,52.4,23.3c-0.1,0.2-0.3,0.4-0.5,0.5L52.4,23.3z M53.4,22.3c0.1,0.1,0.1,0.1,0.2,0.2c-0.2,0.2-0.4,0.3-0.6,0.5   c0-0.1-0.1-0.1-0.1-0.1L53.4,22.3z M54.2,23.4c-0.2,0.1-0.5,0.3-0.7,0.4c-0.1-0.2-0.3-0.4-0.4-0.6c0.2-0.2,0.4-0.3,0.7-0.5   C53.9,22.9,54.1,23.1,54.2,23.4z M54.4,22.3c0.4-0.3,0.8-0.6,1.2-0.8c0.2,0.2,0.4,0.5,0.6,0.8c-0.4,0.2-0.8,0.5-1.2,0.7   C54.7,22.7,54.5,22.5,54.4,22.3z M57.4,27.3c-0.5-0.1-1-0.1-1.6-0.2c0.1-0.7,0.1-1.3,0-1.8c0.6-0.1,1.1-0.2,1.5-0.3   C57.5,25.7,57.5,26.5,57.4,27.3z M55.3,27c-0.4-0.1-0.7-0.1-1.1-0.2c0.1-0.5,0-0.9,0-1.3c0.3-0.1,0.6-0.1,1-0.2   C55.3,25.9,55.3,26.4,55.3,27z M53.9,30.3c-0.3-0.2-0.5-0.4-0.8-0.6c0.2-0.4,0.4-0.7,0.6-1c0.3,0.2,0.7,0.3,1,0.5   C54.4,29.5,54.2,29.9,53.9,30.3z M55,29.3c0.5,0.3,1,0.5,1.3,0.7c-0.3,0.4-0.6,0.9-1,1.3c-0.3-0.2-0.7-0.5-1.1-0.8   C54.6,30.1,54.8,29.7,55,29.3z M53.1,24.3c0.2,0.3,0.3,0.6,0.5,1c-0.3,0.1-0.6,0.2-0.9,0.3c-0.1-0.3-0.2-0.6-0.3-0.8   C52.6,24.6,52.8,24.4,53.1,24.3z M52.2,24.5c-0.1-0.2-0.2-0.3-0.3-0.5c0.2-0.2,0.5-0.3,0.7-0.5c0.1,0.2,0.3,0.3,0.4,0.5   C52.7,24.2,52.4,24.4,52.2,24.5z M53.6,25.7c0.1,0.4,0.1,0.7,0.1,1.1c-0.4-0.1-0.7-0.1-1-0.1c0-0.3,0-0.5,0-0.8   C53,25.8,53.3,25.7,53.6,25.7z M53.7,27c0,0.4-0.1,0.8-0.3,1.2c-0.3-0.1-0.7-0.3-1-0.4c0.1-0.3,0.2-0.7,0.2-1   C53,26.9,53.4,26.9,53.7,27z M53.3,28.5c-0.1,0.3-0.3,0.6-0.6,1c-0.3-0.2-0.5-0.4-0.8-0.6c0.2-0.3,0.3-0.6,0.4-0.8   C52.7,28.2,53,28.3,53.3,28.5z M53.8,28.4c0.2-0.5,0.3-0.9,0.4-1.3c0.4,0.1,0.7,0.1,1.1,0.2c-0.1,0.5-0.2,1-0.5,1.5   C54.5,28.7,54.1,28.5,53.8,28.4z M54.1,25.1c-0.1-0.4-0.3-0.8-0.5-1.2c0.2-0.1,0.5-0.3,0.7-0.4c0.2,0.4,0.5,0.8,0.6,1.3   C54.7,25,54.4,25,54.1,25.1z M51.3,24.4c0,0,0.1-0.1,0.1-0.1c0.1,0.1,0.2,0.3,0.3,0.4c-0.4,0.2-0.8,0.4-1,0.6   c0-0.1-0.1-0.1-0.1-0.2L51.3,24.4z M52.3,25.9c0.1,0.2,0.1,0.4,0.1,0.6c-0.5-0.1-0.9-0.1-1.2-0.2c0-0.1,0-0.2-0.1-0.3   C51.5,26.1,51.8,26,52.3,25.9z M52.1,27.9c-0.1,0.3-0.2,0.5-0.4,0.8c-0.3-0.2-0.6-0.4-0.8-0.6c0.1-0.2,0.2-0.5,0.2-0.7   C51.4,27.6,51.8,27.7,52.1,27.9z M51.5,29.6c0.1-0.2,0.3-0.4,0.4-0.5c0.2,0.2,0.5,0.4,0.7,0.6c-0.2,0.2-0.3,0.4-0.5,0.6L51.5,29.6z    M52.9,30c0.2,0.2,0.5,0.4,0.7,0.6c-0.2,0.2-0.4,0.4-0.6,0.6l-0.6-0.6C52.6,30.4,52.7,30.2,52.9,30z M57.1,30.5   c0.3,0.5-0.4,1.1-0.8,1.3c-0.1,0-0.2,0-0.3-0.1c0.3-0.5,0.6-0.9,0.9-1.4C57,30.4,57.1,30.5,57.1,30.5z M56.6,29.6   c-0.4-0.2-0.9-0.4-1.4-0.7c0.3-0.6,0.4-1.1,0.5-1.6c0.6,0.1,1.1,0.2,1.6,0.3C57.2,28.3,56.9,29,56.6,29.6z M58.4,24.9   c0.2,0.1,0.3,0.3,0.4,0.7l-0.6,0.2l0.1,0.4l0.5-0.1c0,0.7-0.1,1.3-0.3,1.3c-0.1,0-0.3,0-0.5,0c0.2-0.9,0.2-1.7,0.1-2.5   C58.3,24.9,58.4,24.9,58.4,24.9z M57.2,24.4c-0.4,0.1-0.9,0.2-1.5,0.3c-0.2-0.6-0.4-1.1-0.6-1.5c0.4-0.3,0.9-0.5,1.3-0.7   C56.6,23,56.9,23.7,57.2,24.4z M56.9,20.5c0,0,0.1,0,0.1,0l-0.3,0.3l0.3,0.4l0.4-0.3c0.1,0.2,0.2,0.4,0.2,0.5   c0,0.1-0.2,0.2-0.6,0.5c-0.2-0.3-0.4-0.6-0.6-0.9C56.7,20.6,56.9,20.5,56.9,20.5z M55.4,21.2c-0.3,0.3-0.7,0.6-1.2,0.9   c-0.1-0.1-0.2-0.2-0.3-0.3l1.1-1.1C55.1,20.9,55.2,21,55.4,21.2z M44.2,26.1c-0.3-0.1-0.7-0.2-1.1-0.4c0.1-0.2,0.2-0.5,0.4-0.7   c0.4,0.2,0.7,0.5,1,0.6C44.3,25.8,44.3,25.9,44.2,26.1z M44.7,25.9c0.2,0.2,0.4,0.3,0.4,0.4c0,0.1-0.2,0-0.5-0.1   C44.6,26.1,44.6,26,44.7,25.9z M44.6,28.6c-0.1-0.1-0.1-0.2-0.2-0.3c0.3-0.2,0.5-0.3,0.6-0.2c0,0,0,0,0,0L44.6,28.6z M44.5,28.8   l-0.7,0.7c-0.1-0.1-0.2-0.3-0.3-0.4c0.3-0.2,0.6-0.4,0.8-0.6C44.4,28.6,44.4,28.7,44.5,28.8z M42,31.2c-0.2-0.2-0.4-0.5-0.6-0.7   c0.3-0.2,0.5-0.4,0.8-0.5c0.1,0.2,0.3,0.5,0.5,0.7L42,31.2z M39,30.4c-0.1-0.2-0.2-0.4-0.3-0.6c0.4-0.2,0.9-0.4,1.4-0.6   c0.2,0.4,0.4,0.8,0.7,1.3c-0.4,0.3-0.8,0.5-1.2,0.7C39.4,30.9,39.2,30.7,39,30.4L39,30.4L39,30.4z M40.4,29c0.3-0.1,0.7-0.3,1-0.4   c0.1,0.3,0.3,0.7,0.5,1.1c-0.3,0.2-0.5,0.4-0.8,0.5C40.8,29.8,40.6,29.4,40.4,29z M38,24.7c0.4,0.1,0.9,0.2,1.5,0.4   c-0.1,0.5-0.2,1.2-0.1,1.8c-0.6,0-1.2,0.1-1.6,0.1C37.7,26.2,37.8,25.4,38,24.7z M40.2,25.2c0.3,0.1,0.6,0.2,0.9,0.2   C41,25.9,41,26.3,41,26.8c-0.4,0-0.7,0.1-1.1,0.1C39.9,26.3,40,25.7,40.2,25.2z M41.7,22.7c0.2,0.2,0.4,0.3,0.6,0.5   c-0.2,0.2-0.3,0.3-0.5,0.6c-0.2-0.1-0.5-0.3-0.7-0.4C41.4,23.1,41.6,22.8,41.7,22.7z M40.6,22.9c-0.4-0.3-0.8-0.6-1.2-0.8   c0.2-0.3,0.4-0.6,0.6-0.8c0.3,0.3,0.7,0.6,1.1,0.9C40.9,22.4,40.7,22.6,40.6,22.9z M41.7,28.2c-0.1-0.4-0.2-0.8-0.2-1.2   c0.4,0,0.7-0.1,1-0.1c0,0.3,0.1,0.6,0.2,1C42.3,27.9,42,28,41.7,28.2z M42.7,28.1c0.1,0.3,0.2,0.6,0.4,0.9   c-0.3,0.2-0.5,0.4-0.8,0.5c-0.2-0.3-0.4-0.7-0.5-1C42.1,28.3,42.4,28.2,42.7,28.1z M41.5,26.7c0-0.4,0.1-0.8,0.2-1.1   c0.3,0.1,0.6,0.2,0.9,0.2c-0.1,0.2-0.1,0.5-0.1,0.8C42.2,26.7,41.8,26.7,41.5,26.7z M41.8,25.2c0.1-0.4,0.3-0.7,0.5-1   c0.3,0.2,0.5,0.3,0.7,0.5c-0.1,0.2-0.3,0.5-0.4,0.8C42.4,25.5,42.1,25.4,41.8,25.2z M42.4,24.1c0.1-0.2,0.3-0.4,0.4-0.5   c0.1,0.1,0.2,0.1,0.2,0.2l0.4,0.4c-0.1,0.1-0.2,0.3-0.3,0.4C42.9,24.4,42.7,24.3,42.4,24.1z M41.8,23.9c-0.2,0.3-0.4,0.7-0.5,1.1   c-0.3-0.1-0.6-0.2-0.9-0.3c0.2-0.5,0.5-0.9,0.7-1.3C41.3,23.6,41.5,23.8,41.8,23.9z M41,27c0,0.4,0.1,0.8,0.3,1.3   c-0.3,0.1-0.7,0.3-1,0.4c-0.2-0.5-0.3-1.1-0.4-1.6C40.3,27.1,40.7,27,41,27z M42.5,29.7c0.3-0.2,0.5-0.4,0.8-0.6   c0.1,0.2,0.2,0.3,0.3,0.5l-0.6,0.6C42.7,30.1,42.6,29.9,42.5,29.7z M43.3,28.8c-0.2-0.3-0.3-0.5-0.4-0.8c0.4-0.2,0.7-0.3,1-0.4   c0,0.2,0.1,0.4,0.2,0.7C43.9,28.4,43.7,28.6,43.3,28.8z M42.9,27.7c-0.1-0.3-0.1-0.6-0.1-0.9c0.4,0,0.9-0.1,1.2-0.1   c0,0.2,0,0.4,0,0.6C43.7,27.4,43.3,27.6,42.9,27.7z M44.3,26.7c0.3,0,0.5,0,0.5,0.1c0,0.1-0.2,0.2-0.6,0.4   C44.3,27,44.3,26.9,44.3,26.7z M42.9,26.6c0-0.2,0.1-0.4,0.1-0.6c0.4,0.1,0.8,0.2,1.1,0.3c0,0.1,0,0.2-0.1,0.2   C43.8,26.5,43.3,26.6,42.9,26.6z M43.6,24.8c0.1-0.1,0.2-0.2,0.3-0.3l0.8,0.8c0,0-0.1,0.1-0.1,0.1C44.3,25.3,44,25.1,43.6,24.8z    M40.3,21l1,1c0,0,0,0,0,0C40.9,21.7,40.5,21.3,40.3,21C40.2,21,40.3,21,40.3,21z M38,20.9c0-0.2,0.3-0.6,0.5-0.7l0.5,0.5l0.2-0.2   c0,0,0.1,0,0.1,0.1c-0.2,0.2-0.5,0.5-0.7,0.8C38.2,21.2,38,21,38,20.9z M39.2,22.2c0.4,0.3,0.8,0.5,1.2,0.8   c-0.3,0.4-0.6,0.9-0.7,1.5c-0.5-0.2-1-0.3-1.5-0.4C38.5,23.4,38.8,22.8,39.2,22.2z M36.6,27c-0.2,0-0.3-0.9-0.2-1.6l0.4,0.1   l0.1-0.4L36.5,25c0.1-0.3,0.2-0.4,0.4-0.5c0.1,0,0.2,0,0.3,0c-0.1,0.7-0.2,1.6,0,2.5C36.9,27.1,36.7,27.1,36.6,27z M37.8,27.4   c0.5-0.1,1-0.1,1.6-0.2c0.1,0.5,0.2,1.1,0.4,1.6c-0.5,0.2-1,0.4-1.4,0.6C38.1,28.7,37.9,28,37.8,27.4z M38.2,30   C38.2,30.1,38.2,30.1,38.2,30L38.2,30C38.1,30.1,38.1,30.1,38.2,30z M38.6,31.5c-0.4-0.2-0.9-0.7-0.8-1.1l0.7,0.2   c0.1,0.3,0.3,0.5,0.5,0.8C38.8,31.5,38.7,31.6,38.6,31.5z M39.9,31.5c0.3-0.2,0.7-0.5,1.1-0.7c0.2,0.3,0.4,0.6,0.6,0.9l-0.8,0.8   C40.4,32.2,40.1,31.9,39.9,31.5z M45.5,27.7c-0.1-0.1-0.1-0.1-0.2-0.1c-0.1,0-0.5,0.2-0.9,0.5c-0.1-0.2-0.1-0.5-0.1-0.7   c0.6-0.2,0.9-0.4,0.9-0.5c0-0.2-0.3-0.4-0.6-0.5c0,0-0.1,0-0.2,0c0,0,0-0.1,0.1-0.1c0.4,0.1,0.7,0.2,0.8,0.2c0.4,0-0.2-0.7-0.3-0.8   c0,0,0,0-0.1-0.1c0,0,0-0.1,0.1-0.1l1.1,1.1c0.1,0.1,0.2,0.2,0.3,0.2c-0.1,0.1-0.2,0.1-0.3,0.2L45.5,27.7z M48.7,27   c0.1-0.1,0.2-0.1,0.3-0.2l1.3-1.3c0,0,0.1,0.1,0.1,0.1c0,0-0.1,0-0.1,0c-0.1,0.1-0.7,0.8-0.3,0.8c0.1,0,0.3-0.1,0.8-0.1   c0,0,0,0.1,0,0.1c-0.1,0-0.1,0-0.2,0c-0.3,0-0.6,0.2-0.7,0.4c0,0.1,0.3,0.3,0.9,0.5c0,0.2-0.1,0.4-0.2,0.7   c-0.4-0.3-0.7-0.5-0.9-0.5c-0.1,0-0.2,0.1-0.3,0.3L49,27.2C48.9,27.1,48.8,27,48.7,27z"></path></g></svg>